<?xml version="1.0" encoding="utf-8"?>
<!-- Generator: Adobe Illustrator 16.0.0, SVG Export Plug-In . SVG Version: 6.00 Build 0)  -->
<!DOCTYPE svg PUBLIC "-//W3C//DTD SVG 1.1//EN" "http://www.w3.org/Graphics/SVG/1.1/DTD/svg11.dtd">
<svg version="1.1" id="Layer_1" xmlns="http://www.w3.org/2000/svg" xmlns:xlink="http://www.w3.org/1999/xlink" x="0px" y="0px"
	 width="1280px" height="1024px" viewBox="0 0 1280 1024" style="enable-background:new 0 0 1280 1024;" xml:space="preserve">
<polygon style="fill:#C43D3D;" points="138.815,1381.527 -366.75,512 138.815,-357.527 1141.191,-357.527 1646.753,512 
	1141.191,1381.527 "/>
<polygon style="fill:#D24141;" points="173.438,1321.218 -297.141,512 173.438,-297.217 1106.568,-297.217 1577.143,512 
	1106.568,1321.218 "/>
<polygon style="fill:#C43D3D;" points="208.06,1260.908 -227.531,512 208.06,-236.908 1071.945,-236.908 1507.534,512 
	1071.945,1260.908 "/>
<polygon style="fill:#B93939;" points="242.682,1201.361 -157.922,512 242.682,-177.361 1037.323,-177.361 1437.925,512 
	1037.323,1201.361 "/>
<polygon style="fill:#C43D3D;" points="277.304,1141.052 -88.312,512 277.304,-117.052 1002.7,-117.052 1368.314,512 
	1002.7,1141.052 "/>
<polygon style="fill:#B93939;" points="311.926,1080.742 -18.703,512 311.926,-56.742 968.077,-56.742 1298.706,512 
	968.077,1080.742 "/>
<polygon style="fill:#D24141;" points="346.548,1020.433 50.906,512 346.548,3.567 933.453,3.567 1229.096,512 933.453,1020.433 "/>
<polygon style="fill:#C43D3D;" points="381.171,960.123 120.515,512 381.171,63.877 898.832,63.877 1159.486,512 898.832,960.123 
	"/>
<polygon style="fill:#B93939;" points="415.793,899.813 190.125,512 415.793,124.187 864.209,124.187 1089.875,512 864.209,899.813 
	"/>
<polygon style="fill:#C43D3D;" points="450.415,840.268 259.734,512 450.415,183.732 829.586,183.732 1020.266,512 829.586,840.268 
	"/>
<polygon style="fill:#D24141;" points="485.037,779.958 329.343,512 485.037,244.042 794.963,244.042 950.655,512 794.963,779.958 
	"/>
<polygon style="fill:#B93939;" points="519.659,719.648 398.953,512 519.659,304.352 760.34,304.352 881.046,512 760.34,719.648 "/>
<polygon style="fill:#D24141;" points="554.28,659.339 468.562,512 554.28,364.661 725.717,364.661 811.436,512 725.717,659.339 "/>
</svg>
