<?xml version="1.0" encoding="utf-8"?>
<!-- Generator: Adobe Illustrator 16.0.0, SVG Export Plug-In . SVG Version: 6.00 Build 0)  -->
<!DOCTYPE svg PUBLIC "-//W3C//DTD SVG 1.1//EN" "http://www.w3.org/Graphics/SVG/1.1/DTD/svg11.dtd">
<svg version="1.1" id="Layer_1" xmlns="http://www.w3.org/2000/svg" xmlns:xlink="http://www.w3.org/1999/xlink" x="0px" y="0px"
	 width="960px" height="664.029px" viewBox="160 179.985 960 664.029" style="enable-background:new 160 179.985 960 664.029;"
	 xml:space="preserve">
<g>
	<path style="fill:#880000;" d="M1115.199,643.928c-3.77-4.497-9.035-6.948-14.874-6.948c-2.381,0-4.847,0.432-7.569,1.34
		l23.469-116.748c0.185-0.938,0.155-1.883,0.155-2.843v-4.112c0-0.522,0.136-1.03,0.149-1.522c0.104-4.581,0.378-14.117-8.809-20.9
		c-4.562-3.36-10.162-6.924-19.506-6.924c-8.471,0-16.814,2.059-26.305,6.476c-9.007,4.201-16.188,9.435-21.972,16.006
		c-0.391,0.44-0.745,0.904-1.071,1.383c-0.595-5.188-2.626-11.818-9.578-16.945c-6.417-4.725-12.886-6.92-20.368-6.92
		c-8.51,0-16.896,2.059-26.392,6.476c-9.061,4.223-16.258,9.462-22.014,16.021c-3.275,3.73-4.391,8.884-2.951,13.635
		c0.949,3.126,2.92,5.785,5.519,7.603l-10.768,49.899c-3.235-5.372-7.825-10.06-13.696-13.934
		c-9.816-6.455-21.374-9.724-34.369-9.724c-22.424,0-43.252,8.025-61.915,23.843c-7.604,6.441-13.733,13.436-18.378,20.937
		c0.327-2.573,0.491-5.072,0.491-7.492c0-11.78-4.706-21.581-13.615-28.339c-3.395-2.581-7.096-4.569-11.048-6.041
		c1.668-6.98,3.396-14.04,5.208-21.133l0.063-0.258l0.057-0.252c0.379-1.755,0.774-3.566,1.184-5.45
		c6.101,2.736,12.936,4.116,20.363,4.116c15.294,0,36.877-5.76,54.225-33.212c11.455-18.143,16.976-37.383,16.976-57.195v-89.497
		c0-14.724-3.917-27.567-12.221-38.171c-6.123-7.826-17.53-17.152-37.785-17.152c-4.441,0-8.631,0.448-12.671,1.34
		c-1.5-6.297-5.123-11.616-10.636-15.358c-5.839-3.969-12.644-5.979-20.25-5.979c-4.484,0-8.909,0.54-13.175,1.608
		c-3.688,0.916-7.629,2.184-11.705,3.764l-0.857,0.336l-0.812,0.441l-9.701,5.284l-0.474,0.258l-0.456,0.292l-4.997,3.229
		l-0.416,0.269l-0.396,0.294l-2.352,1.76l-2.347,1.759l-14.825,11.091l14.437,11.594l0.623,0.498c-0.003,0.02-0.009,0.04-0.012,0.06
		c-0.28,1.479-0.609,3.261-0.986,5.316l-2.345,10.26c-1.272,0.347-2.555,0.734-3.832,1.137c-0.313-11.11-4.866-20.519-13.292-27.233
		c-7.867-6.265-17.307-9.446-28.058-9.446c-9.681,0-19.006,2.021-27.718,6.004c-3.404,1.553-6.734,3.356-9.979,5.397
		c-7.503-7.444-17.615-11.4-29.633-11.4c-9.567,0-18.927,2.429-27.822,7.22c-1.087,0.555-2.605,1.402-5.113,2.997
		c-0.417-0.491-0.848-0.968-1.293-1.429c-3.874-4.006-10.979-8.788-22.812-8.788c-8.723,0-17.668,2.083-26.587,6.188
		c-6.991,3.218-13.284,7.194-18.762,11.854c-1.285-2.988-2.963-5.411-4.709-7.346c0.79-0.545,1.572-1.109,2.341-1.701
		c10.228-7.822,15.631-18.371,15.631-30.511c0-9.896-4.15-18.447-12.002-24.734c-7.002-5.601-15.113-8.439-24.111-8.439
		c-11.224,0-21.575,3.563-30.772,10.596c-3.905,2.984-7.104,6.369-9.572,10.086c-3.528-7.582-8.069-14.174-13.541-19.646
		c-1.416-1.416-2.849-2.766-4.294-4.05c5.125-1.505,10.021-4.128,14.635-7.854c10.731-8.674,12.984-18.853,12.984-25.868
		c0-10.769-5.318-19.852-14.972-25.578l-0.101-0.061l-0.099-0.056c-6.294-3.596-13.934-5.419-22.705-5.419
		c-16.853,0-32.582,5.027-46.75,14.942c-8.718,6.009-17.771,14.66-27.489,26.307c-11.112,0.283-21.637,1.259-31.365,2.911
		c-11.847,2.012-24.027,5.374-36.207,9.989l-0.089,0.034l-0.09,0.037c-15.595,6.149-28.734,14.277-39.059,24.154
		c-14.074,13.576-21.189,28.924-21.189,45.653c0,7.51,1.656,14.486,4.873,20.704c-18.641,2.914-36.328,10.835-50.133,22.71
		c-18.563,15.963-38.433,35.087-39.192,60.1c-0.97,31.967-0.68,69.268,0,90.396c0.595,18.481,11.429,35.8,33.122,52.942
		c14.648,11.528,35.734,18.127,57.875,18.127c14.458,0,29.479-2.557,42.306-7.188c0.323-0.117,0.636-0.253,0.956-0.371
		c0.236,1.656,0.474,3.336,0.716,5.068c2.414,17.208,5.417,38.623,10.04,52.518c4.299,12.938,19.84,22.329,36.952,22.329
		c0.453,0,0.904-0.006,1.357-0.017c11.074-0.321,21.013-3.473,29.537-9.372c8.677-6.016,15.485-14.364,20.238-24.823
		c1.825-3.99,3.498-8.733,4.969-14.096c1.023-4.263,2.091-8.771,3.222-13.568c0.196,0.699,0.329,1.327,0.329,1.811
		c0,0.167,0.028,0.52,0.091,1.05c0.182,1.53,0.668,5.606,0.178,12.162c-0.115,1.519,0.007,3.027,0.135,4.63
		c0.091,1.161,0.189,2.36,0.189,3.579c0,2.39,0.676,4.144,1.242,5.197l0.084,0.155l0.099,0.142c1.407,1.99,3.578,3.133,5.957,3.133
		c4.336,0,8.796-4.497,14.46-14.572c2.168-3.914,4.75-9.23,7.682-15.829c0.482-1.081,0.955-2.131,1.417-3.14
		c-0.819,3.146-1.498,6.253-2.016,9.235c-0.726,4.188-1.093,8.338-1.093,12.325c0,6.089,1.123,11.325,3.333,15.554
		c2.988,5.714,7.716,8.73,13.677,8.73c9.105,0,20.701-9.543,27.965-16.529c-0.199,0.991-0.39,1.944-0.573,2.871
		c-11.472,12.509-17.492,27.638-17.492,44.302c0,6.908,3.679,22.698,5.922,28.451c11.138,29.337,39.822,104.917,42.306,111.59
		c3.356,11.506,13.996,24.845,26.723,33.431c16.049,10.8,35.187,16.267,56.898,16.267c11.543,0,22.393-1.352,32.246-4.021
		c9.836-2.671,20.12-7.123,30.567-13.228c5.712-3.344,10.897-7.497,15.532-12.442c0.608,0.464,1.259,0.879,1.95,1.249
		c2.127,1.132,4.446,1.688,6.747,1.688c3.321,0,6.609-1.156,9.244-3.369c1.018-0.505,5.25-2.267,18.143-4.463
		c11.025-1.756,19.534-7.437,24.635-16.138c1.796,3.31,4.119,6.309,6.935,8.938c7.25,6.759,16.08,10.329,25.548,10.329
		c9.928,0,20.369-3.644,31.923-11.13c3.143-2.03,5.947-4.139,8.406-6.319c0.083,0.095,0.162,0.185,0.244,0.28
		c10.388,12.002,24.424,18.347,40.585,18.347c6.869,0,13.761-1.223,20.483-3.64c6.114-2.203,12.185-5.158,18.075-8.786
		c2.93-1.798,5.875-3.96,8.814-6.459c1.487,2.499,3.269,4.799,5.338,6.874c7.051,7.088,16.06,10.833,26.048,10.833
		c9.859,0,20.238-3.503,31.735-10.719c1.367-0.854,2.675-1.729,3.92-2.619c0.761,0.931,1.524,1.766,2.268,2.507
		c7.045,7.081,16.055,10.832,26.042,10.832c9.833,0,20.528-3.615,31.796-10.749c18.453-11.679,38.417-38.638,60.721-70.062
		c31.179-43.915,41.519-61.792,42.553-73.561C1120.246,654.659,1119.678,649.315,1115.199,643.928z M1042.53,529.018l-16.002,74.156
		c-1.281-0.993-2.712-1.963-4.324-2.815l16.046-76.019C1039.313,526.204,1040.777,527.802,1042.53,529.018z"/>
	<path style="fill:#F80100;" d="M470.84,211.099c0,5.689-2.551,10.583-7.646,14.699c-5.099,4.119-10.491,6.177-16.174,6.177
		c-1.761,0-2.989-0.246-3.673-0.737c-0.69-0.488-1.228-1.221-1.616-2.206c-0.395-0.977-0.691-1.765-0.882-2.353
		c-0.982-3.53-3.433-5.292-7.351-5.292c-4.706,0-9.312,1.573-13.821,4.708c-4.512,3.133-8.333,6.957-11.466,11.464
		c9.602,1.962,17.688,4.46,24.255,7.499c6.564,3.039,12.986,7.694,19.26,13.965c5.294,5.292,9.457,11.906,12.497,19.847
		c3.037,7.94,4.557,15.833,4.557,23.669c0,17.644-5.292,33.52-15.877,47.634c-11.567,15.487-25.977,23.228-43.222,23.228
		c-9.806,0-18.081-2.989-24.845-8.968c-6.764-5.978-10.143-13.769-10.143-23.373c0-5.489,1.417-11.468,4.261-17.936
		c2.839-6.47,6.221-9.704,10.142-9.704c0.589,0,1.274,0.197,2.059,0.589c0.782,0.396,1.471,0.785,2.059,1.175
		c0,1.96,0.782,3.922,2.355,5.883c1.566,1.96,3.426,2.942,5.585,2.942c5.881,0,10.778-3.238,14.701-9.704
		c3.331-5.486,4.999-11.368,4.999-17.644c0-8.035-2.647-15.041-7.938-21.024c-5.292-5.974-12.057-9.85-20.29-11.612
		c-2.746,5.696-5.981,13.892-9.699,24.586c-3.729,10.699-6.374,19.286-7.94,25.767l-14.995,60.655
		c-1.376,5.302-2.701,9.575-3.968,12.814c-1.279,3.238-4.464,10.061-9.561,20.463c-5.88,11.978-14.309,22.768-25.285,32.387
		c-8.628,7.854-18.772,13.889-30.432,18.109c-11.665,4.218-23.572,6.333-35.725,6.333c-17.641,0-32.835-5.011-45.574-15.036
		c-13.922-10.999-20.876-25.043-20.876-42.138c0-19.449,7.936-36.002,23.817-49.655c15.877-13.654,33.712-20.483,53.514-20.483
		c5.683,0,9.896,0.879,12.642,2.644c2.745,1.763,4.117,4.115,4.117,7.059c0,1.372-0.543,2.746-1.617,4.113
		c-1.08,1.377-1.91,2.354-2.5,2.942c-1.961,2.352-2.94,4.703-2.94,7.056c0,4.119,1.762,7.452,5.292,9.999
		c3.527,2.549,7.448,3.824,11.761,3.824c11.172,0,20.971-5.684,29.401-17.057c5.096-6.858,10.486-17.54,16.174-32.048l5.881-15.583
		l6.467-15.583l6.764-15.585l7.056-15.581l-5.294,1.177l-4.998,1.468c-1.174,0.396-2.793,0.986-4.851,1.763
		c-2.057,0.788-3.777,1.57-5.145,2.353c-3.727,1.763-6.958,4.218-9.706,7.351c-2.744,3.139-4.115,6.668-4.115,10.585
		c0,3.527,1.371,5.837,4.115,6.91c2.746,1.08,4.604,1.963,5.588,2.644c0.978,0.693,1.47,1.816,1.47,3.384
		c0,8.428-5.689,16.464-17.052,24.107c-10.394,7.057-20.289,10.586-29.698,10.586c-9.408,0-17.641-3.039-24.698-9.114
		c-7.056-6.075-10.584-13.82-10.584-23.229c0-12.742,5.585-24.502,16.759-35.283c9.013-8.623,20.48-15.681,34.4-21.17
		c11.366-4.309,22.54-7.397,33.52-9.259c10.973-1.862,22.932-2.795,35.868-2.795c10.39-13.13,19.999-22.736,28.817-28.813
		c11.764-8.233,24.597-12.35,38.519-12.35c6.271,0,11.465,1.175,15.583,3.527C468.191,201.005,470.84,205.415,470.84,211.099z"/>
	<path style="fill:#F80100;" d="M540.748,403.617c0,7.84-6.278,14.994-18.818,21.468c-10.984,5.683-20.876,8.523-29.696,8.523
		c-7.257,0-13.628-2.16-19.112-6.468c-5.491-4.312-8.235-10.095-8.235-17.346l0.293-4.706l12.35-58.804v-1.18
		c0-4.507-2.253-7.937-6.764-10.29c4.705-4.705,10.733-8.771,18.085-12.204c7.35-3.427,14.261-5.144,20.728-5.144
		c4.897,0,8.966,1.329,12.202,3.984c3.235,2.655,4.85,6.445,4.85,11.36c0,2.364-0.786,7.177-2.352,14.456
		c-0.197,1.377-1.229,5.806-3.087,13.278c-1.866,7.477-3.189,13.081-3.969,16.818c-1.574,7.476-2.353,12.395-2.353,14.751
		c0,2.952,0.735,5.408,2.205,7.375c1.468,1.966,3.575,2.946,6.324,2.946c1.369,0,3.426-0.63,6.176-1.909
		c2.74-1.273,4.894-1.911,6.466-1.911c1.178,0,2.252,0.491,3.235,1.468C540.256,401.072,540.748,402.244,540.748,403.617z
		 M537.514,281.005c0,7.645-3.334,14.016-9.997,19.111c-6.668,5.099-14.019,7.646-22.052,7.646c-5.88,0-10.979-1.662-15.29-4.996
		c-4.312-3.331-6.469-7.94-6.469-13.823c0-7.643,3.331-14.012,9.998-19.112c6.662-5.09,14.015-7.641,22.052-7.641
		c5.684,0,10.732,1.766,15.14,5.292C535.306,271.012,537.514,275.519,537.514,281.005z"/>
	<path style="fill:#F80100;" d="M750.959,404.498c0,6.668-5.837,13.232-17.494,19.697c-11.664,6.474-22.104,9.701-31.316,9.701
		c-7.45,0-13.92-2.168-19.405-6.515c-5.491-4.346-8.232-10.172-8.232-17.486c0-3.351,1.473-10.563,4.411-21.629
		c2.941-11.061,4.408-18.174,4.408-21.334c0-5.927-2.744-8.891-8.234-8.891c-5.094,0-9.014,2.97-11.756,8.892
		c-0.982,2.372-2.458,7.608-4.411,15.709l-6.468,29.645c-1.178,6.129-3.779,10.724-7.794,13.783
		c-4.021,3.067-9.166,4.598-15.436,4.598c-7.645,0-13.135,0.387-16.468,1.166c-3.333,0.766-7.644,3.001-12.938,6.699l14.998-68.74
		l0.292-4.119c0-5.087-2.549-7.633-7.644-7.633c-5.099,0-9.115,2.941-12.056,8.819c-1.373,2.938-2.842,8.234-4.407,15.875
		c-0.983,6.079-2.208,11.958-3.678,17.644c-1.468,5.686-2.5,9.704-3.087,12.053c-1.573,7.059-3.922,11.666-7.056,13.821
		c-3.139,2.16-8.431,3.73-15.877,4.704h-14.993c-2.551,0-5.197,0.777-7.94,2.324c-1.178,0.779-3.433,2.529-6.762,5.25l19.405-86.815
		l0.586-7.083c0-5.117-2.158-8.664-6.468-10.629c5.093-4.922,11.17-9.007,18.229-12.255c7.057-3.248,13.917-4.874,20.585-4.874
		c5.484,0,9.651,1.471,12.493,4.411c2.841,2.939,4.56,7.348,5.146,13.231c9.41-6.662,15.483-10.682,18.231-12.052
		c6.856-3.725,13.914-5.587,21.169-5.587c12.738,0,21.466,5.878,26.169,17.64c6.071-5.486,12.541-9.798,19.407-12.935
		c6.858-3.136,14.114-4.704,21.754-4.704c7.449,0,13.823,2.107,19.112,6.319c5.298,4.218,7.939,9.953,7.939,17.2
		c0,3.337-0.589,7.746-1.766,13.233c-0.393,1.959-1.467,6.277-3.23,12.938c-0.983,4.513-2.057,9.508-3.235,14.993
		c-1.175,5.49-1.767,9.216-1.767,11.172c0,2.749,0.737,5.049,2.211,6.909c1.465,1.866,3.57,2.792,6.32,2.792
		c1.564,0,3.528-0.586,5.877-1.76c2.348-1.176,4.409-1.765,6.176-1.765c1.366,0,2.542,0.589,3.528,1.765
		C750.469,401.85,750.959,403.129,750.959,404.498z"/>
	<path style="fill:#F80100;" d="M883.407,355.272c0,17.494-4.902,34.001-14.701,49.524c-11.176,17.682-25.192,26.527-42.046,26.527
		c-6.079,0-11.423-1.207-16.021-3.597c-4.612-2.406-9.072-6.005-13.382-10.811c-0.785,2.748-1.77,6.816-2.941,12.207
		c-1.179,5.385-2.255,10.331-3.233,14.844c-2.353,9.213-4.608,18.423-6.767,27.635c-1.962,5.493-4.901,9.121-8.82,10.885
		c-3.92,1.76-9.114,2.649-15.586,2.649c-7.839,0-13.083,0.334-15.727,1.016c-2.643,0.68-6.517,3.252-11.613,7.727l37.339-163.182
		c0.394-2.149,0.733-4.003,1.031-5.571c0.291-1.561,0.44-2.936,0.44-4.112c0-1.955-0.392-3.716-1.178-5.282l-2.352-2.641
		l-1.178-1.172l-1.469-1.178l2.351-1.758l2.352-1.76l4.999-3.229l9.703-5.283c3.526-1.367,6.858-2.444,9.998-3.224
		c3.13-0.782,6.369-1.178,9.703-1.178c4.703,0,8.77,1.167,12.202,3.496c3.429,2.33,5.143,5.725,5.143,10.192
		c0,2.138-0.49,5.243-1.473,9.322c-0.98,4.076-1.465,6.602-1.465,7.569c4.894-3.53,9.601-6.173,14.112-7.938
		c4.507-1.763,9.505-2.645,14.994-2.645c11.564,0,20.382,3.881,26.461,11.647C880.365,333.712,883.407,343.486,883.407,355.272z
		 M834.306,354.978c0-2.966-0.835-5.49-2.501-7.566c-1.67-2.078-3.87-3.118-6.617-3.118c-4.705,0-8.671,2.229-11.906,6.678
		c-3.237,4.453-4.852,9.155-4.852,14.097c0,2.966,0.88,5.541,2.646,7.715c1.763,2.18,4.215,3.263,7.348,3.263
		c4.708,0,8.532-2.222,11.47-6.675C832.836,364.919,834.306,360.125,834.306,354.978z"/>
	<path style="fill:#F80100;" d="M471.931,450.366c0,1.064-0.243,2.184-0.721,3.356c-0.482,1.174-1.042,2.238-1.678,3.2
		c-0.643,0.958-1.366,2.212-2.161,3.753c-0.798,1.548-1.358,2.696-1.679,3.439c-2.023,4.583-3.995,9.167-5.911,13.75
		c-1.922,4.583-3.335,9.139-4.238,13.667c-0.909,4.527-1.357,9.136-1.357,13.828c0,3.302,0.316,5.965,0.958,7.993
		c1.064,3.405,2.82,5.11,5.273,5.11c0.532,0,1.329-0.264,2.399-0.796c1.063-0.533,1.972-0.802,2.714-0.802
		c0.749,0,1.414,0.376,1.999,1.122c0.586,0.747,0.879,1.867,0.879,3.358c0,6.712-2.797,13.183-8.391,19.419
		c-5.594,6.233-11.75,9.354-18.465,9.354c-5.221,0-9.166-2.399-11.827-7.188c-2.134-3.843-3.195-8.587-3.195-14.232
		c0-3.841,0.37-7.778,1.117-11.832c0.744-4.042,1.806-8.31,3.197-12.787c0.639-2.447,1.329-4.578,2.078-6.392
		c0.105-0.323,1.063-2.343,2.876-6.076l3.036-6.072l1.601-3.2l0.798-1.437c0.104-0.321,0.268-0.611,0.481-0.878
		c0.213-0.266,0.37-0.507,0.475-0.721c-4.152,3.73-7.988,8.419-11.503,14.065c-2.238,3.733-4.961,8.98-8.156,15.745
		c-3.198,6.771-5.861,11.964-7.995,15.591c-5.219,8.736-9.428,13.104-12.625,13.104c-1.494,0-2.72-0.637-3.678-1.916
		c-0.425-0.747-0.637-2.025-0.637-3.843c0-2.977,0.094-5.646,0.281-7.988c0.663-8.315,0.996-12.788,0.996-13.425
		c0-2.985-0.083-6.926-0.244-11.83c-0.155-4.898-0.241-7.937-0.241-9.111v-4.635l0.483-4.8c-1.601,3.208-3.25,7.64-4.958,13.295
		c-1.062,3.417-2.266,7.798-3.595,13.134c-1.333,5.339-2.585,10.302-3.756,14.889c-1.494,5.124-3.195,9.666-5.118,13.614
		c-4.793,9.931-11.618,17.775-20.458,23.544c-8.847,5.765-18.759,8.646-29.735,8.646c-10.121,0-18.648-2.938-25.574-8.814
		c-7.351-6.195-11.03-14.254-11.03-24.188c0-10.787,4.261-19.706,12.79-26.757c7.994-6.623,17.423-9.933,28.292-9.933
		c3.197,0,5.701,0.267,7.516,0.798c3.194,0.959,4.796,2.556,4.796,4.794c0,0.747-0.162,1.336-0.482,1.758
		c-0.32,0.428-1.276,1.228-2.875,2.4c-1.602,1.171-2.398,2.823-2.398,4.955c0,2.344,0.931,4.287,2.797,5.837
		c1.861,1.542,4.023,2.315,6.47,2.315c5.542,0,10.393-2.77,14.545-8.311c1.814-2.455,4.693-7.677,8.634-15.667
		c3.203-7.249,5.594-12.574,7.194-15.988c2.665-5.754,5.702-10.762,9.113-15.026l-3.679-1.085l-3.519-0.906l-3.672-0.727h-3.677
		c-2.457,0-4.668,0.561-6.638,1.68c-1.972,1.118-2.952,2.799-2.952,5.036c0,2.557,1.225,3.836,3.672,3.836l1.926-0.161
		c1.916,0,2.872,0.801,2.872,2.398c0,4.157-3.733,8.209-11.189,12.151c-6.716,3.515-12.68,5.273-17.903,5.273
		c-6.187,0-11.404-2.448-15.668-7.351c-4.262-4.904-6.393-10.55-6.393-16.95c0-8.628,3.89-15.927,11.672-21.895
		c7.247-5.541,15.289-8.315,24.136-8.315c5.964,0,13.8,1.999,23.502,5.998c9.691,3.994,16.833,5.994,21.414,5.994l7.353-0.48
		c1.384,0,2.585,0.377,3.601,1.12c1.006,0.746,1.517,2.027,1.517,3.835c0,0.855-0.184,1.76-0.543,2.72
		c-0.364,0.959-0.61,1.705-0.727,2.238l-1.451,4.798c-0.162,1.172-0.36,2.851-0.596,5.033c-0.239,2.187-0.361,3.812-0.361,4.875
		c0,3.412,0.055,5.968,0.163,7.672c0.531,8.634,0.794,13.005,0.794,13.11c2.882-5.116,5.758-10.229,8.637-15.346
		c3.513-5.437,7.695-10.63,12.548-15.585c4.847-4.957,9.512-8.977,13.986-12.07c6.282-4.369,11.877-6.556,16.78-6.556
		c1.493,0,2.743,0.399,3.759,1.199C471.421,447.891,471.931,448.983,471.931,450.366z"/>
	<path style="fill:#F80100;" d="M545.782,493.22v2.401l-9.91,46.113c-2.349,10.783-7.648,19.828-15.909,27.14
		c-8.261,7.313-17.877,10.969-28.851,10.969c-6.287,0-11.299-1.279-15.025-3.83c-4.476-3.103-6.713-7.627-6.713-13.593
		c0-3.309,1.009-6.184,3.035-8.631c1.603-2.03,4.099-3.996,7.514-5.916c0.852,2.877,2.265,5.221,4.237,7.037
		c1.972,1.811,4.395,2.709,7.272,2.709c4.792,0,8.953-1.811,12.471-5.434c3.087-3.196,5.379-7.244,6.869-12.146l-4.95,3.195
		l-4.962,2.559c-3.09,1.39-6.446,2.079-10.071,2.079c-4.476,0-8.147-1.166-11.03-3.521c-2.874-2.338-4.313-5.753-4.313-10.228
		c0-2.026,0.425-4.901,1.276-8.631c0.854-3.729,1.441-6.443,1.763-8.153c1.168-5.008,2.02-8.873,2.554-11.588
		c0.532-2.72,0.796-4.449,0.796-5.198c0-1.381-0.294-2.477-0.878-3.278c-0.586-0.8-1.518-1.73-2.795-2.798
		c3.094-2.659,6.526-4.873,10.31-6.633c3.783-1.758,7.539-2.634,11.269-2.634c2.343,0,4.474,0.692,6.392,2.074
		c1.922,1.386,2.881,3.199,2.881,5.434c0,2.348-0.35,4.852-1.04,7.515c-0.694,2.664-1.253,4.85-1.68,6.556
		c-0.743,3.093-1.279,5.493-1.595,7.191c-0.747,3.416-1.12,5.758-1.12,7.032c0,1.277,0.398,2.371,1.197,3.278
		c0.799,0.91,1.842,1.358,3.122,1.358c2.665,0,4.74-1.283,6.228-3.846c0.959-1.61,1.764-4.072,2.4-7.388
		c0.96-3.205,1.6-5.56,1.916-7.056c0.749-2.891,1.12-5.299,1.12-7.225c0-2.353-1.12-4.281-3.357-5.779
		c2.649-2.568,5.829-4.73,9.541-6.499c3.71-1.763,7.263-2.646,10.651-2.646c2.655,0,4.877,0.692,6.681,2.083
		C544.878,488.685,545.782,490.658,545.782,493.22z"/>
	<path style="fill:#F80100;" d="M580.186,511.676c10.454-7.276,21.019-11.172,30.141-14.111c9.109-2.944,19.549-4.412,31.312-4.412
		c14.306,0,26.759,3.137,37.338,9.41c12.941,7.644,19.409,18.129,19.409,31.459c0,10.78-5.582,19.21-16.764,25.286
		c-9.015,4.901-19.503,7.351-31.452,7.351c-8.634,0-16.968-1.222-24.998-3.676c-8.042-2.444-16.765-6.028-26.17-10.732l-0.59,4.116
		c0,6.666,6.269,14.018,18.823,22.054c19.002,12.156,30.579,20.095,34.696,23.819c12.738,11.367,19.106,24.308,19.106,38.809
		c0,13.132-3.582,25.244-10.729,36.312c-7.153,11.075-16.52,19.356-28.088,24.847c-11.564,5.49-22.679,9.409-33.369,11.762
		c-10.68,2.352-22.396,3.529-35.132,3.529c-23.326,0-43.42-4.608-60.275-13.815c-20.773-11.377-31.168-27.835-31.168-49.401
		c0-16.267,6.661-29.892,19.993-40.869c12.349-10.19,26.86-15.291,43.518-15.291c8.428,0,17.537,1.866,27.34,5.59
		c11.963,4.508,17.944,9.896,17.944,16.171c0,2.351-0.989,4.219-2.945,5.585c-0.195,0.198-2.353,1.373-6.469,3.529
		c-4.118,2.162-6.177,5.785-6.177,10.882c0,4.901,2.007,8.815,6.035,11.76c4.012,2.938,8.672,4.411,13.959,4.411
		c5.491,0,10.636-1.666,15.436-5.002c4.8-3.331,7.206-7.643,7.206-12.935c0-7.448-4.852-14.996-14.551-22.644
		c-9.701-7.643-19.169-15.089-28.382-22.346c-10.189-9.605-15.281-20.091-15.281-31.462c0-5.485,1.313-11.114,3.524-17.053
		c1.687-4.53,2.906-9.095,7.582-15.738C566.514,521.034,570.684,518.285,580.186,511.676z M654.285,533.14
		c0-1.563-0.695-3.04-2.062-4.412c-1.371-1.368-3.341-2.451-5.886-3.23c-2.549-0.785-5.188-1.179-7.938-1.179
		c-7.837,0-14.412,2.351-19.698,7.054c4.708,2.159,9.457,4.071,14.265,5.738c4.798,1.664,8.968,2.494,12.494,2.494
		c2.151,0,4.015-0.483,5.585-1.471C653.202,536.374,654.285,534.71,654.285,533.14z"/>
	<path style="fill:#F80100;" d="M825.981,656.925c0,7.054-6.177,13.819-18.526,20.287c-11.181,5.882-21.073,8.819-29.703,8.819
		c-7.257,0-13.717-2.156-19.402-6.465c-5.687-4.312-8.528-10.1-8.528-17.349c0-4.509,0.784-9.803,2.354-15.881
		c3.914-15.29,5.88-24.3,5.88-27.047c0-2.354-0.785-4.312-2.351-5.881c-1.571-1.565-3.437-2.356-5.586-2.356
		c-5.493,0-9.701,2.647-12.647,7.945c-2.158,3.724-3.821,8.916-4.995,15.576c-2.156,9.998-4.267,20.191-6.323,30.582
		c-2.062,10.391-9.264,16.368-21.613,17.938c-17.05,2.354-27.342,4.894-30.866,7.643l34.103-158.235l0.878-6.169
		c0-2.147-0.386-3.958-1.171-5.428c-0.785-1.464-2.547-2.889-5.301-4.261c5.656-5.084,11.891-9.189,18.718-12.323
		s13.657-4.699,20.485-4.699c4.866,0,8.915,1.418,12.134,4.248c3.222,2.838,4.828,6.6,4.828,11.282v2.927l-14.996,67.988
		c3.329-1.57,6.571-3.43,9.698-5.591c5.095-3.331,8.428-5.39,10.007-6.173c6.652-3.135,13.318-4.703,19.991-4.703
		c7.448,0,13.817,2.013,19.104,6.027c5.302,4.021,7.938,9.655,7.938,16.905c0,3.924-0.576,8.23-1.764,12.937
		c-1.171,4.703-2.353,9.559-3.524,14.557c-1.172,4.995-2.057,9.066-2.649,12.201c-1.375,6.273-2.059,10.687-2.059,13.232
		c0,2.748,0.786,4.996,2.356,6.763c1.566,1.766,3.821,2.639,6.767,2.639c1.568,0,3.677-0.53,6.316-1.612
		c2.647-1.077,4.461-1.615,5.44-1.615c1.367,0,2.549,0.488,3.524,1.471C825.479,654.081,825.981,655.354,825.981,656.925z"/>
	<path style="fill:#F80100;" d="M947.475,644.869c0,5.292-3.92,11.467-11.759,18.521c-6.468,5.883-12.838,10.396-19.115,13.531
		c-6.278,3.134-12.596,5.629-18.964,7.497c-6.371,1.855-12.787,2.791-19.259,2.791c-14.895,0-27.104-4.457-36.612-13.378
		c-9.504-8.922-14.253-20.729-14.253-35.434c0-18.62,8.029-34.735,24.105-48.36c16.073-13.626,33.617-20.438,52.632-20.438
		c10.191,0,19.016,2.449,26.463,7.351c8.622,5.687,12.94,13.429,12.94,23.23c0,12.937-7.64,23.422-22.937,31.456
		c-12.942,6.863-26.463,10.297-40.574,10.297c0,4.112,1.415,7.393,4.258,9.846c2.843,2.456,6.417,3.672,10.741,3.672
		c6.854,0,15.579-2.887,26.166-8.668c10.587-5.782,16.854-8.673,18.82-8.673c1.958,0,3.669,0.638,5.137,1.911
		C946.741,641.297,947.475,642.912,947.475,644.869z M906.603,601.649c0-1.571-0.69-3.041-2.056-4.414
		c-1.379-1.366-2.945-2.059-4.708-2.059c-5.095,0-9.403,3.432-12.93,10.291c-1.571,3.139-2.845,6.375-3.819,9.705
		c5.48,0,10.287-0.885,14.396-2.646C903.567,609.981,906.603,606.354,906.603,601.649z"/>
	<path style="fill:#F80100;" d="M1027.951,514.616v4.112l-27.638,124.082l-0.292,3.818c0,2.356,0.773,4.318,2.345,5.883
		c1.564,1.569,3.626,2.349,6.171,2.349c1.765,0,3.923-0.583,6.468-1.76c2.552-1.18,4.506-1.768,5.883-1.768
		c1.57,0,2.842,0.588,3.821,1.768c0.979,1.177,1.474,2.456,1.474,3.824c0,7.254-6.378,14.113-19.114,20.585
		c-11.164,5.684-21.071,8.521-29.69,8.521c-7.653,0-14.164-2.203-19.556-6.605c-5.398-4.396-8.091-10.316-8.091-17.762l0.297-4.104
		l27.645-127.997l0.283-2.932c0-2.154-0.334-4.06-1.026-5.725c-0.686-1.668-2.499-2.889-5.433-3.674
		c4.298-4.891,10.138-9.05,17.485-12.473c7.354-3.424,14.266-5.137,20.734-5.137c4.699,0,8.917,1.372,12.646,4.116
		C1026.088,506.484,1027.951,510.111,1027.951,514.616z"/>
	<path style="fill:#F80100;" d="M1107.402,514.616v4.112l-27.635,124.082l-0.298,3.818c0,2.356,0.786,4.318,2.356,5.883
		c1.568,1.569,3.626,2.349,6.173,2.349c1.767,0,3.914-0.583,6.468-1.76c2.539-1.18,4.507-1.768,5.881-1.768
		c1.573,0,2.833,0.588,3.82,1.768c0.979,1.177,1.471,2.456,1.471,3.824c0,7.254-6.371,14.113-19.107,20.585
		c-11.179,5.684-21.08,8.521-29.701,8.521c-7.646,0-14.164-2.203-19.557-6.605c-5.391-4.396-8.079-10.316-8.079-17.762l0.293-4.104
		l27.637-127.997l0.295-2.932c0-2.154-0.345-4.06-1.028-5.725c-0.691-1.668-2.496-2.889-5.439-3.674
		c4.308-4.891,10.147-9.05,17.494-12.473c7.349-3.424,14.257-5.137,20.726-5.137c4.709,0,8.919,1.372,12.647,4.116
		C1105.536,506.484,1107.402,510.111,1107.402,514.616z"/>
</g>
</svg>
