<?xml version="1.0" encoding="utf-8"?>
<!-- Generator: Adobe Illustrator 16.0.0, SVG Export Plug-In . SVG Version: 6.00 Build 0)  -->
<!DOCTYPE svg PUBLIC "-//W3C//DTD SVG 1.1//EN" "http://www.w3.org/Graphics/SVG/1.1/DTD/svg11.dtd">
<svg version="1.1" id="Layer_1" xmlns="http://www.w3.org/2000/svg" xmlns:xlink="http://www.w3.org/1999/xlink" x="0px" y="0px"
	 width="1024px" height="1024px" viewBox="0 0 1024 1024" enable-background="new 0 0 1024 1024" xml:space="preserve">
<g>
	<rect x="447" y="382" fill="#FE4B75" width="130" height="65"/>
	<polygon fill="#FE4B75" points="382,318 382,254 254,254 254,382 318,382 318,447 382,447 382,382 447,382 447,318 	"/>
	<polygon fill="#FE4B75" points="642,254 642,318 577,318 577,382 642,382 642,447 706,447 706,382 770,382 770,254 	"/>
	<polygon fill="#FE4B75" points="447,318 577,318 577,254 642,254 642,189 577,189 577,124 382,124 382,254 447,254 	"/>
	<rect x="254" y="900" fill="#F8F8F8" width="516" height="64"/>
	<rect x="770" y="835" fill="#F8F8F8" width="130" height="65"/>
	<rect x="124" y="835" fill="#F8F8F8" width="130" height="65"/>
	<polygon fill="#F8F8F8" points="964,706 964,642 835,642 835,577 706,577 706,512 642,512 642,447 382,447 382,512 318,512 
		318,577 189,577 189,642 60,642 60,706 0,706 0,835 60,835 60,770 254,770 254,706 318,706 318,642 706,642 706,706 770,706 
		770,770 964,770 964,835 1024,835 1024,706 	"/>
	<polygon fill="#F8F8F8" points="577,189 706,189 706,124 642,124 642,60 512,60 512,124 577,124 	"/>
	<polygon fill="#D33B64" points="770,254 770,382 706,382 706,512 770,512 770,447 835,447 835,254 	"/>
	<polygon fill="#D33B64" points="189,447 254,447 254,512 318,512 318,382 254,382 254,254 189,254 	"/>
	<rect x="706" y="189" fill="#D33B64" width="64" height="65"/>
	<rect x="254" y="189" fill="#D33B64" width="64" height="65"/>
	<rect x="318" y="124" fill="#D33B64" width="64" height="65"/>
	<rect x="382" y="60" fill="#D33B64" width="130" height="64"/>
	<rect x="254" y="964" width="516" height="60"/>
	<rect x="770" y="900" width="130" height="64"/>
	<rect x="124" y="900" width="130" height="64"/>
	<polygon points="770,770 770,706 706,706 706,642 318,642 318,706 254,706 254,770 60,770 60,900 124,900 124,835 254,835 254,900 
		770,900 770,835 900,835 900,900 964,900 964,770 	"/>
	<rect x="964" y="642" width="60" height="64"/>
	<rect y="642" width="60" height="64"/>
	<rect x="900" y="577" width="64" height="65"/>
	<rect x="60" y="577" width="64" height="65"/>
	<rect x="706" y="512" width="194" height="65"/>
	<rect x="124" y="512" width="194" height="65"/>
	<rect x="900" y="447" width="64" height="65"/>
	<rect x="642" y="447" width="64" height="65"/>
	<rect x="318" y="447" width="64" height="65"/>
	<rect x="60" y="447" width="64" height="65"/>
	<rect x="577" y="382" width="65" height="65"/>
	<rect x="382" y="382" width="65" height="65"/>
	<rect x="447" y="318" width="130" height="64"/>
	<rect x="577" y="254" width="65" height="64"/>
	<rect x="382" y="254" width="65" height="64"/>
	<rect x="642" y="189" width="64" height="65"/>
	<rect x="318" y="189" width="64" height="65"/>
	<rect x="706" y="124" width="129" height="65"/>
	<rect x="189" y="124" width="129" height="65"/>
	<rect x="642" y="60" width="64" height="64"/>
	<rect x="318" y="60" width="64" height="64"/>
	<rect x="577" width="65" height="60"/>
	<rect x="382" width="65" height="60"/>
	<rect x="964" y="577" fill="#B6335A" width="60" height="65"/>
	<rect x="835" y="577" fill="#B6335A" width="65" height="65"/>
	<rect x="124" y="577" fill="#B6335A" width="65" height="65"/>
	<rect x="900" y="512" fill="#B6335A" width="64" height="65"/>
	<polygon fill="#B6335A" points="0,512 0,642 60,642 60,577 124,577 124,512 	"/>
	<polygon fill="#B6335A" points="964,447 964,318 900,318 900,189 770,189 770,254 835,254 835,447 770,447 770,512 900,512 
		900,447 	"/>
	<polygon fill="#B6335A" points="124,189 124,318 60,318 60,447 124,447 124,512 254,512 254,447 189,447 189,254 254,254 254,189 	
		"/>
	<rect x="706" y="60" fill="#B6335A" width="64" height="64"/>
	<rect x="254" y="60" fill="#B6335A" width="64" height="64"/>
	<rect x="642" fill="#B6335A" width="64" height="60"/>
	<rect x="447" fill="#B6335A" width="130" height="60"/>
	<rect x="318" fill="#B6335A" width="64" height="60"/>
</g>
</svg>
